<?xml version="1.0" encoding="utf-8"?>
<!-- Generator: Adobe Illustrator 22.1.0, SVG Export Plug-In . SVG Version: 6.00 Build 0)  -->
<svg version="1.1" id="Layer_1" xmlns="http://www.w3.org/2000/svg" xmlns:xlink="http://www.w3.org/1999/xlink" x="0px" y="0px"
	 viewBox="0 0 1280 1024" style="enable-background:new 0 0 1280 1024;" xml:space="preserve">
<style type="text/css">
	.st0{fill:#FFFFFF;}
</style>
<path class="st0" d="M81.1,522.9V415.6c0-3.9,2-7.1,6.1-9.6c4-2.4,9.2-3.7,15.3-3.7c5.4,0,10,1.2,13.8,3.7c3.8,2.5,5.6,5.7,5.6,9.6
	v10.5c3-6.8,7.6-12.8,13.9-17.9c6.3-5.1,12.8-7.7,19.6-7.7h8.2c4.1,0,7.7,1.9,10.8,5.7c3.1,3.8,4.6,8.2,4.6,13.3
	c0,5.3-1.5,9.8-4.6,13.6c-3.1,3.8-6.7,5.7-10.8,5.7h-8.2c-8.1,0-15.2,3.9-21.4,11.7c-6.2,7.8-9.3,17.8-9.3,30.2v42.1
	c0,3.4-2.2,6.5-6.6,9.3c-4.4,2.8-9.6,4.2-15.6,4.2c-6,0-11.1-1.4-15.2-4.1C83.2,529.6,81.1,526.5,81.1,522.9z"/>
<path class="st0" d="M185.1,479.5V459c0-16,6.3-29.7,19-41.1c12.7-11.4,27.9-17.2,45.8-17.2c16.7,0,31,5,42.8,15.1
	c11.8,10.1,17.7,22.9,17.7,38.6c0,6-0.8,10.8-2.3,14.6c-1.5,3.7-3.8,6.3-6.8,7.8c-3,1.5-5.8,2.5-8.3,2.9c-2.5,0.5-5.9,0.7-10,0.7
	h-54.3v1.7c0,7,2.6,12.7,7.9,16.9c5.3,4.3,12.2,6.4,20.8,6.4c6.6,0,13.5-1.8,20.7-5.3c7.2-3.6,12.1-5.4,14.5-5.4
	c4.7,0,8.5,2.2,11.5,6.6c3,4.4,4.5,8.6,4.5,12.5c0,5.8-5,11.5-15.1,17c-10,5.5-22.5,8.3-37.3,8.3c-21,0-38.2-5.5-51.4-16.5
	C191.7,511.8,185.1,497.4,185.1,479.5z M228.7,455.9h34.9c3.9,0,5.9-2,5.9-6.1c0-4.8-2-8.5-6.1-11.2c-4-2.7-8.9-4.1-14.5-4.1
	c-5.4,0-10.2,1.4-14.2,4.1c-4,2.7-6.1,6.5-6.1,11.2V455.9z"/>
<path class="st0" d="M325,479.5v-19.1c0-17.8,5.3-32.2,15.9-43.2c10.6-11,26.4-16.5,47.5-16.5c13.5,0,24.8,2.3,33.9,6.9
	c9.1,4.6,13.7,10.1,13.7,16.5c0,4.7-1.6,9.4-4.9,14.2c-3.3,4.8-7.3,7.2-12,7.2c-1.5,0-4.9-1.1-10.3-3.2c-5.4-2.2-10.9-3.2-16.8-3.2
	c-15.6,0-23.4,7.2-23.4,21.5v19c0,14.3,7.9,21.5,23.7,21.5c5.6,0,11-1.2,16.2-3.7c5.2-2.4,8.7-3.7,10.6-3.7c5.4,0,9.9,2.3,13.4,6.8
	c3.5,4.5,5.2,9.2,5.2,14.1c0,6.6-4.8,12.3-14.4,17.3c-9.6,5-21,7.5-34.4,7.5c-21.4,0-37.4-5.4-48-16.3
	C330.3,512,325,497.6,325,479.5z"/>
<path class="st0" d="M523.2,584V415.6c0-3.9,2-7.1,6.1-9.6c4-2.4,9-3.7,14.8-3.7c5.8,0,10.6,1.2,14.4,3.7c3.8,2.5,5.6,5.7,5.6,9.6
	v6.5c3.6-6.1,8.7-11.2,15.5-15.3c6.8-4.2,14.3-6.2,22.5-6.2c14.1,0,26,5.8,35.8,17.3c9.8,11.5,14.6,25.5,14.6,41.8v19.7
	c0,15.8-4.9,29.7-14.8,41.7c-9.9,12-21.3,18-34.2,18c-7.9,0-15.3-2.2-22.1-6.7c-6.9-4.4-11.7-9.8-14.5-16V584c0,3.4-2.2,6.5-6.6,9.3
	c-4.4,2.8-9.6,4.2-15.6,4.2c-6,0-11.1-1.4-15.2-4.1C525.3,590.7,523.2,587.6,523.2,584z M566.9,483.1c0,3,2.1,6.7,6.3,11.2
	c4.2,4.5,9.2,6.7,14.8,6.7c5.4,0,10.3-2.2,14.5-6.6c4.2-4.4,6.3-9.4,6.3-14.9v-19.5c0-5.4-2.1-10.2-6.3-14.5
	c-4.2-4.3-9.2-6.4-15.1-6.4c-5.4,0-10.2,1.9-14.4,5.7c-4.1,3.8-6.2,8.9-6.2,15.2V483.1z"/>
<path class="st0" d="M668,479.5V459c0-16,6.3-29.7,19-41.1c12.7-11.4,27.9-17.2,45.8-17.2c16.7,0,31,5,42.8,15.1
	c11.8,10.1,17.7,22.9,17.7,38.6c0,6-0.8,10.8-2.3,14.6c-1.5,3.7-3.8,6.3-6.8,7.8c-3,1.5-5.8,2.5-8.3,2.9c-2.5,0.5-5.9,0.7-10,0.7
	h-54.3v1.7c0,7,2.6,12.7,7.9,16.9c5.3,4.3,12.2,6.4,20.8,6.4c6.6,0,13.5-1.8,20.7-5.3c7.2-3.6,12.1-5.4,14.5-5.4
	c4.7,0,8.5,2.2,11.5,6.6c3,4.4,4.5,8.6,4.5,12.5c0,5.8-5,11.5-15.1,17c-10,5.5-22.5,8.3-37.3,8.3c-21,0-38.2-5.5-51.4-16.5
	C674.6,511.8,668,497.4,668,479.5z M711.6,455.9h34.9c3.9,0,5.9-2,5.9-6.1c0-4.8-2-8.5-6.1-11.2c-4-2.7-8.9-4.1-14.5-4.1
	c-5.4,0-10.2,1.4-14.2,4.1c-4,2.7-6.1,6.5-6.1,11.2V455.9z"/>
<path class="st0" d="M805.1,500.2c0-15,5.7-25.6,17-31.7c11.4-6.1,27.6-9.2,48.9-9.2h10.1v-2.9c0-5.9-1.7-11-5.1-15.3
	c-3.4-4.3-8.7-6.5-16.1-6.5c-9,0-16.4,1.7-22.2,5.2c-5.8,3.5-9.4,5.2-10.7,5.2c-4.5,0-8.1-2.2-10.7-6.6c-2.6-4.4-3.9-9.4-3.9-15.1
	c0-6.2,5.2-11.5,15.6-15.9c10.4-4.4,21.3-6.6,32.5-6.6c21.6,0,37.7,5.3,48.3,15.8c10.6,10.5,15.9,23.7,15.9,39.4v67
	c0,3.8-2,6.9-6.1,9.6c-4,2.6-9.2,3.9-15.3,3.9c-5.4,0-10-1.4-13.8-4.2c-3.8-2.8-5.6-6.2-5.6-10.2v-6.6c-13,15.9-27.2,23.9-42.8,23.9
	c-10.3,0-18.9-3.3-25.8-10C808.6,522.6,805.1,512.9,805.1,500.2z M849.1,494.5c0,7.3,3.7,11,11,11c4.7,0,9.4-2.4,14.1-7.3
	c4.7-4.9,7-10.4,7-16.7v-1H880c-6.2,0-11.3,0.3-15.3,0.8c-4,0.5-7.7,1.9-10.8,4C850.7,487.4,849.1,490.5,849.1,494.5z"/>
<path class="st0" d="M942.3,513.3c0-3.9,1.4-8.1,4.2-12.5c2.8-4.4,6.2-6.6,10.1-6.6c2.3,0,5,0.9,8.3,2.8c3.3,1.8,7.4,3.7,12.4,5.6
	c5,1.9,10.7,2.9,17.3,2.9c11.6,0,17.5-3,17.5-8.9c0-3.2-2.3-5.9-6.8-8c-4.5-2.1-10-3.8-16.5-5.3c-6.5-1.4-13-3.3-19.4-5.7
	c-6.5-2.3-12-6.2-16.5-11.6c-4.5-5.4-6.8-12.4-6.8-20.9c0-12.3,4.2-22.8,12.7-31.4c8.4-8.6,21.9-13,40.3-13
	c12.6,0,23.7,1.9,33.4,5.8c9.7,3.9,14.5,8.7,14.5,14.5c0,3.8-1.5,8.1-4.5,13.1c-3,5-6.8,7.5-11.3,7.5c-1.9,0-6.2-1.2-13-3.5
	c-6.8-2.3-13-3.5-18.6-3.5c-5.3,0-9.2,0.9-12,2.6c-2.7,1.7-4.1,3.7-4.1,6.1c0,2.7,2.3,4.9,6.9,6.5c4.6,1.6,10.1,3.2,16.6,4.7
	c6.5,1.5,13,3.5,19.4,6c6.5,2.4,12,6.6,16.6,12.5c4.6,5.9,6.9,13.2,6.9,22.1c0,13.8-4.7,24.7-14.2,32.5
	c-9.5,7.9-22.9,11.8-40.1,11.8c-14.6,0-27.2-2.6-37.7-7.7C947.5,526.3,942.3,520.3,942.3,513.3z"/>
<path class="st0" d="M1057.4,578.1c0-12.6,3.6-18.9,10.7-18.9c26.7,0,40-11.9,40-35.7l-49.3-97c-0.9-1.9-1.4-3.7-1.4-5.6
	c0-5.2,3.4-9.9,10.1-14.2c6.8-4.3,13.2-6.4,19.4-6.4c6.2,0,10.2,2.3,12.1,7l31.8,75.5l23.4-75.5c1.9-4.6,5.6-7,11.3-7
	c5.8,0,12.3,2.2,19.4,6.5c7.1,4.4,10.7,9.3,10.7,14.9c0,1.9-0.4,3.5-1.1,4.8l-40,99.8c-0.9,2.6-2.6,7-5.1,13.3l-5.1,13
	c-0.9,2.8-2.7,6.7-5.2,11.7c-2.5,5-4.9,8.7-7,11.1c-2.2,2.4-5.1,5.4-8.9,8.7c-3.8,3.4-7.7,5.8-11.8,7.3c-4.1,1.5-9.1,2.9-14.9,4.1
	c-5.8,1.2-12.2,1.8-19.1,1.8c-6.6,0-11.5-1.3-14.9-3.8C1059.1,591.1,1057.4,585.9,1057.4,578.1z"/>
<g>
	<path class="st0" d="M484.3,290.6c8.3,1.6,14.2,6.7,18.9,13.4c4.1,5.8,6.6,12.2,8.5,19c2.9,10.5,3.8,21.2,3.2,32
		c-0.2,4.7-1.9,9.1-4.1,13.3c-3.5,6.5-8.6,11.2-14.9,15.1c-3.5,2.1-5.4,5.6-5.4,9.7c-0.1,11.7,0,23.4-0.1,35.1c0,1.2,0.5,2,1.6,2.3
		c4.7,1.5,7.9,4.8,9.6,9.3c0.8,2,1.1,4.4,1.2,6.5c0.1,26.8,0.1,53.6,0,80.4c0,9.1-3.7,16.5-11.4,21.5c-2.2,1.4-5,2-7.5,3
		c-0.3,0.1-0.5,0.1-1.9,0.3c-0.7,0.3-7.5,0.6-8.2,0.1c-1.6-0.4-3.3-1-4.8-1.6c-7.3-3-12-8.4-13.9-16.1c-0.5-2.1-0.9-4.4-0.9-6.6
		c-0.1-27.4,0-54.7-0.1-82.1c0-6.4,4.7-12.9,10.4-14.7c1.3-0.4,2-1.3,2-2.8c0-11.1,0-22.2,0-33.3c0-5.6-2.6-9.7-7.5-12.5
		c-5.8-3.4-10-8.2-13.1-14.1c-4-7.6-4.7-15.7-3.8-24c0.5-4.9,0.8-9.9,1.6-14.7c0.6-3.7,1.7-7.4,3-10.9c1.4-3.8,3-7.6,5-11.1
		c3.3-6,7.9-10.9,14.1-14c2.4-1.2,5.2-2.3,8.3-2.9C478.4,289.5,484,290.5,484.3,290.6z M474.1,409.7
		C474.1,409.7,474.1,409.7,474.1,409.7c0,5.9,0,11.8,0,17.7c0,1.4,0.4,2.1,2,2c1.4-0.1,2.8,0,4.2,0c2.6,0,2.9-0.2,2.9-2.9
		c0-10.8,0.1-21.6,0-32.4c-0.1-8.1,3.5-14,10.2-18.2c9.5-6,14.3-14.7,14.3-25.9c0-3.4-0.3-6.8-0.7-10.1c-0.8-5.5-1.5-11-2.8-16.3
		c-1.4-5.6-3.8-10.8-7.2-15.6c-3.3-4.6-7.4-8.5-12.9-9.9c-8-2.1-15,0.1-20.7,6.1c-7.4,7.9-10.6,17.6-12.3,27.9c-1,5.9-1,12-1.3,18
		c-0.3,4.3,0.5,8.3,2.2,12.3c2.6,5.8,6.5,10.3,11.9,13.6c6.5,3.9,10,9.7,10.3,17.4C474.3,398.9,474.1,404.3,474.1,409.7z
		 M495.1,487.5C495.1,487.5,495.1,487.5,495.1,487.5c0-13.7,0-27.4,0-41.1c0-1.5-0.1-3.2-0.8-4.5c-1.6-3.3-4.5-4.9-8.1-5
		c-5.1,0-10.1-0.1-15.2,0c-5.5,0.1-9.3,3.9-9.3,9.4c0,26.9,0,53.7,0,80.6c0,2.3,0.3,4.7,1.2,6.7c2.5,5.7,6.6,9.5,13.1,10.6
		c9.8,1.6,19.2-6.1,19.2-15.7C495.1,514.7,495.1,501.1,495.1,487.5z"/>
	<path class="st0" d="M486.1,492.9c0,5.4,0,10.9,0,16.3c0,1-0.1,2.1-0.3,3c-0.5,2.1-1.7,2.8-3.9,2.7c-1.7-0.1-3.3-1.7-3.4-3.4
		c-0.1-1.1,0-2.3,0-3.4c0-10.9,0-21.8,0-32.7c0-0.9,0.1-1.9,0.5-2.6c1.1-1.9,2.6-2.5,4.2-2.1c1.7,0.5,2.8,1.8,2.8,4.1
		c0.1,3.1,0.1,6.3,0.1,9.4C486.1,487.1,486.1,490,486.1,492.9z"/>
	<path class="st0" d="M478.4,453.7c0-1.1,0-2.3,0-3.4c0-2.3,1.6-4.2,3.5-4.3c2.3-0.1,3.8,1,4,3.6c0.2,2.8,0.2,5.7,0,8.5
		c-0.2,2.4-1.7,3.5-3.9,3.3c-2.2-0.1-3.5-1.6-3.6-3.9C478.4,456.3,478.4,455,478.4,453.7z"/>
</g>
</svg>
